<svg width="120" height="120" viewBox="0 0 120 120" fill="none" xmlns="http://www.w3.org/2000/svg">
  <path
    d="M118.998 46.5147L99.6778 105.642C96.1768 116.534 84.3772 122.499 73.4853 118.998L14.3576 99.8075C3.46562 96.3065 -2.49902 84.5069 1.00196 73.6149L20.1925 14.3576C23.6935 3.46562 35.4931 -2.49902 46.3851 1.00196L105.642 20.1925C116.534 23.9528 122.499 35.6228 118.998 46.5147Z"
    fill="#492588"
  />
  <path
    opacity="0.5"
    d="M112.515 30.3068C112.515 27.8431 112.126 25.5091 111.348 23.3048C109.662 22.1378 107.717 21.1005 105.643 20.4522L70.2438 8.78223H28.8803C26.6759 8.78223 24.4716 9.17122 22.5266 9.81955C21.619 11.2459 20.841 12.8019 20.3223 14.4875L7.48535 53.906V92.5465C7.48535 93.8431 7.61502 95.0101 7.87435 96.3068C9.81934 97.8628 12.0237 99.0298 14.3577 99.8078L57.7958 113.941H91.12C92.4167 113.941 93.843 113.812 95.01 113.552C97.0847 111.348 98.6407 108.755 99.678 105.772L112.515 66.3539V30.3068Z"
    fill="#261247"
  />
  <path
    d="M91.1192 111.996H28.8794C17.4688 111.996 8.13281 102.66 8.13281 91.2494V29.0097C8.13281 17.5991 17.4688 8.26318 28.8794 8.26318H91.1192C102.53 8.26318 111.866 17.5991 111.866 29.0097V91.2494C111.866 102.66 102.53 111.996 91.1192 111.996Z"
    fill="url(#paint0_linear)"
  />
  <path
    d="M28.8801 101.622C23.1748 101.622 18.5068 96.9545 18.5068 91.2492V29.0095C18.5068 23.3042 23.1748 18.6362 28.8801 18.6362H91.1198C96.8251 18.6362 101.493 23.3042 101.493 29.0095V91.2492C101.493 96.9545 96.8251 101.622 91.1198 101.622H28.8801Z"
    fill="#573199"
  />
  <path
    d="M28.8801 101.622C23.1748 101.622 18.5068 96.9545 18.5068 91.2492V29.0095C18.5068 23.3042 23.1748 18.6362 28.8801 18.6362H91.1198C96.8251 18.6362 101.493 23.3042 101.493 29.0095V91.2492C101.493 96.9545 96.8251 101.622 91.1198 101.622H28.8801Z"
    fill="url(#paint1_linear)"
  />
  <path
    opacity="0.25"
    d="M91.3791 18.6362C91.2495 18.6362 91.1198 18.6362 91.1198 18.6362H90.8605V28.7502H81.1355V18.6362H80.4872V28.7502H70.7622V18.6362H70.1139V28.7502H60.389V18.6362H59.7406V28.7502H50.0157V18.6362H49.3673V28.7502H39.6424V18.6362H38.9941V28.7502H29.2691V18.6362H28.8801C28.7505 18.6362 28.6208 18.6362 28.6208 18.6362V28.6205H18.5068C18.5068 28.7502 18.5068 28.8798 18.5068 28.8798V29.2688H28.6208V38.9938H18.5068V39.6421H28.6208V49.3671H18.5068V50.0154H28.6208V59.7404H18.5068V60.3887H28.6208V70.1137H18.5068V70.762H28.6208V80.4869H18.5068V81.1353H28.6208V90.8602H18.5068V91.1195C18.5068 91.2492 18.5068 91.3789 18.5068 91.3789H28.4911V101.363C28.6208 101.363 28.7505 101.363 28.7505 101.363H29.0098V91.5085H38.7347V101.622H39.3831V91.5085H49.108V101.622H49.7563V91.5085H59.4813V101.622H60.1296V91.5085H69.8546V101.622H70.5029V91.5085H80.2279V101.622H80.8762V91.5085H90.6011V101.622H91.1198C91.2495 101.622 91.3791 101.622 91.3791 101.622V91.5085H101.493C101.493 91.3789 101.493 91.2492 101.493 91.2492V90.9899H91.3791V81.1353H101.493V80.4869H91.3791V70.762H101.493V70.1137H91.3791V60.3887H101.493V59.7404H91.3791V50.0154H101.493V49.3671H91.3791V39.6421H101.493V38.9938H91.3791V29.2688H101.493V29.0095C101.493 28.8798 101.493 28.7502 101.493 28.7502H91.5088V18.6362H91.3791ZM38.9941 90.8602H29.2691V81.1353H38.9941V90.8602ZM38.9941 80.4869H29.2691V70.762H38.9941V80.4869ZM38.9941 70.1137H29.2691V60.3887H38.9941V70.1137ZM38.9941 59.7404H29.2691V50.0154H38.9941V59.7404ZM38.9941 49.3671H29.2691V39.6421H38.9941V49.3671ZM38.9941 38.9938H29.2691V29.2688H38.9941V38.9938ZM49.3673 90.8602H39.6424V81.1353H49.3673V90.8602ZM49.3673 80.4869H39.6424V70.762H49.3673V80.4869ZM49.3673 70.1137H39.6424V60.3887H49.3673V70.1137ZM49.3673 59.7404H39.6424V50.0154H49.3673V59.7404ZM49.3673 49.3671H39.6424V39.6421H49.3673V49.3671ZM49.3673 38.9938H39.6424V29.2688H49.3673V38.9938ZM59.7406 90.8602H50.0157V81.1353H59.7406V90.8602ZM59.7406 80.4869H50.0157V70.762H59.7406V80.4869ZM59.7406 70.1137H50.0157V60.3887H59.7406V70.1137ZM59.7406 59.7404H50.0157V50.0154H59.7406V59.7404ZM59.7406 49.3671H50.0157V39.6421H59.7406V49.3671ZM59.7406 38.9938H50.0157V29.2688H59.7406V38.9938ZM70.1139 90.8602H60.389V81.1353H70.1139V90.8602ZM70.1139 80.4869H60.389V70.762H70.1139V80.4869ZM70.1139 70.1137H60.389V60.3887H70.1139V70.1137ZM70.1139 59.7404H60.389V50.0154H70.1139V59.7404ZM70.1139 49.3671H60.389V39.6421H70.1139V49.3671ZM70.1139 38.9938H60.389V29.2688H70.1139V38.9938ZM80.4872 90.8602H70.7622V81.1353H80.4872V90.8602ZM80.4872 80.4869H70.7622V70.762H80.4872V80.4869ZM80.4872 70.1137H70.7622V60.3887H80.4872V70.1137ZM80.4872 59.7404H70.7622V50.0154H80.4872V59.7404ZM80.4872 49.3671H70.7622V39.6421H80.4872V49.3671ZM80.4872 38.9938H70.7622V29.2688H80.4872V38.9938ZM90.8605 90.8602H81.1355V81.1353H90.8605V90.8602ZM90.8605 80.4869H81.1355V70.762H90.8605V80.4869ZM90.8605 70.1137H81.1355V60.3887H90.8605V70.1137ZM90.8605 59.7404H81.1355V50.0154H90.8605V59.7404ZM90.8605 49.3671H81.1355V39.6421H90.8605V49.3671ZM90.8605 38.9938H81.1355V29.2688H90.8605V38.9938Z"
    fill="#7B52CE"
  />
  <path
    d="M91.1208 18.6369C96.8261 18.6369 101.494 23.3049 101.494 29.0102V91.2499C101.494 96.9552 96.8261 101.623 91.1208 101.623H28.881C23.1757 101.623 18.5077 96.9552 18.5077 91.2499V29.0102C18.5077 23.3049 23.1757 18.6369 28.881 18.6369H91.1208V18.6369ZM91.1208 17.8589H28.881C22.7867 17.8589 17.8594 22.7862 17.8594 28.8805V91.1202C17.8594 97.2145 22.7867 102.142 28.881 102.142H91.1208C97.2151 102.142 102.142 97.2145 102.142 91.1202V28.8805C102.142 22.9159 97.2151 17.8589 91.1208 17.8589Z"
    fill="url(#paint2_linear)"
  />
  <path
    opacity="0.5"
    d="M91.1198 18.6362H28.8801C23.1748 18.6362 18.5068 23.3042 18.5068 29.0095V30.3062C18.5068 24.6009 23.1748 19.9329 28.8801 19.9329H91.1198C96.8251 19.9329 101.493 24.6009 101.493 30.3062V29.0095C101.493 23.1745 96.8251 18.6362 91.1198 18.6362Z"
    fill="#261247"
  />
  <path
    opacity="0.5"
    d="M28.8801 101.623H40.1611L52.8684 88.9158C55.2024 89.5641 57.5363 89.9531 60 89.9531C74.2633 89.9531 85.9332 78.2832 85.9332 64.0199C85.9332 60.6486 85.2849 57.5366 84.1179 54.5543L64.668 74.0042L50.0157 59.2223L69.4656 39.7724C66.4833 38.6054 63.3713 37.957 60 37.957C45.7367 37.957 34.0668 49.627 34.0668 63.8902C34.0668 66.3539 34.4558 68.8175 35.1041 71.0219L18.5068 87.7488V91.2498C18.5068 96.9551 23.1748 101.623 28.8801 101.623Z"
    fill="#261247"
  />
  <path
    d="M64.7976 69.9839L50.0157 55.3316L69.4656 35.8817C66.4833 34.7147 63.3713 34.0664 60 34.0664C45.7367 34.0664 34.0668 45.7363 34.0668 59.9996C34.0668 62.4633 34.4558 64.9269 35.1041 67.1312L18.5068 83.8582V91.2491C18.5068 96.9544 23.1748 101.622 28.8801 101.622H36.2711L52.8684 85.0252C55.2024 85.6735 57.5363 86.0625 60 86.0625C74.2633 86.0625 85.9332 74.3925 85.9332 60.1293C85.9332 56.758 85.2849 53.646 84.1179 50.6637L64.7976 69.9839Z"
    fill="url(#paint3_linear)"
  />
  <path
    opacity="0.6"
    d="M64.7976 69.9839L50.0157 55.3316L69.4656 35.8817C66.4833 34.7147 63.3713 34.0664 60 34.0664C45.7367 34.0664 34.0668 45.7363 34.0668 59.9996C34.0668 62.4633 34.4558 64.9269 35.1041 67.1312L18.5068 83.8582V84.7658L35.4931 67.7796L35.7524 67.5202L35.6228 67.1312C34.9744 64.7973 34.5854 62.4633 34.5854 60.1293C34.5854 46.1253 45.8664 34.8444 59.8703 34.8444C62.723 34.8444 65.446 35.3631 68.169 36.2707L49.6267 54.813L49.108 55.3316L49.6267 55.8503L64.279 70.5026L64.7976 71.0212L65.3163 70.5026L83.9882 51.8307C84.8959 54.5536 85.4146 57.2766 85.4146 60.1293C85.4146 74.1332 74.1336 85.4142 60.1297 85.4142C57.7957 85.4142 55.4617 85.0252 53.1277 84.3768L52.7387 84.2472L52.4794 84.5065L35.2338 101.622H36.1414L52.8684 85.0252C55.2024 85.6735 57.5363 86.0625 60 86.0625C74.2633 86.0625 85.9332 74.3925 85.9332 60.1293C85.9332 56.758 85.2849 53.646 84.1179 50.6637L64.7976 69.9839Z"
    fill="url(#paint4_linear)"
  />
  <defs>
    <linearGradient
      id="paint0_linear"
      x1="59.9993"
      y1="111.931"
      x2="59.9993"
      y2="8.19835"
      gradientUnits="userSpaceOnUse"
    >
      <stop stop-color="#573199" />
      <stop offset="1" stop-color="#8454D1" />
    </linearGradient>
    <linearGradient id="paint1_linear" x1="60" y1="101.558" x2="60" y2="18.5714" gradientUnits="userSpaceOnUse">
      <stop stop-color="#462285" />
      <stop offset="1" stop-color="#573199" />
    </linearGradient>
    <linearGradient
      id="paint2_linear"
      x1="60.0009"
      y1="102.207"
      x2="60.0009"
      y2="17.9237"
      gradientUnits="userSpaceOnUse"
    >
      <stop stop-color="#8761CE" />
      <stop offset="1" stop-color="#AA84F5" stop-opacity="0.6" />
    </linearGradient>
    <linearGradient id="paint3_linear" x1="52.22" y1="101.558" x2="52.22" y2="34.1312" gradientUnits="userSpaceOnUse">
      <stop offset="0.000641026" stop-color="#CAD2DE" />
      <stop offset="1" stop-color="#EEF1F5" />
    </linearGradient>
    <linearGradient id="paint4_linear" x1="52.22" y1="101.558" x2="52.22" y2="34.1312" gradientUnits="userSpaceOnUse">
      <stop stop-color="#DEE2E5" stop-opacity="0.5" />
      <stop offset="1" stop-color="#F7F9FA" />
    </linearGradient>
  </defs>
</svg>
